<svg xmlns="http://www.w3.org/2000/svg" viewBox="0 0 512 512" width="512" height="512">
<defs>
  <linearGradient id="skin" x1="0" y1="0" x2="0" y2="1">
    <stop offset="0" stop-color="#8FE3F2"/><stop offset="1" stop-color="#2BA9CC"/>
  </linearGradient>
  <linearGradient id="gill" x1="0" y1="0" x2="0" y2="1">
    <stop offset="0" stop-color="#FFB8D6"/><stop offset="1" stop-color="#F06FA8"/>
  </linearGradient>
  <radialGradient id="shine" cx="0.35" cy="0.25" r="0.6">
    <stop offset="0" stop-color="#FFFFFF" stop-opacity="0.55"/><stop offset="1" stop-color="#FFFFFF" stop-opacity="0"/>
  </radialGradient>
</defs><g transform="translate(138 238) rotate(-105)"><rect x="-22" y="-92" width="44" height="102" rx="22" fill="url(#gill)" stroke="#0B3A52" stroke-width="10"/><circle cx="-5" cy="-68" r="7" fill="#FFFFFF" opacity="0.55"/></g><g transform="translate(138 238) rotate(-72)"><rect x="-22" y="-112" width="44" height="122" rx="22" fill="url(#gill)" stroke="#0B3A52" stroke-width="10"/><circle cx="-5" cy="-88" r="7" fill="#FFFFFF" opacity="0.55"/></g><g transform="translate(138 238) rotate(-40)"><rect x="-22" y="-98" width="44" height="108" rx="22" fill="url(#gill)" stroke="#0B3A52" stroke-width="10"/><circle cx="-5" cy="-74" r="7" fill="#FFFFFF" opacity="0.55"/></g><g transform="translate(374 238) rotate(105)"><rect x="-22" y="-92" width="44" height="102" rx="22" fill="url(#gill)" stroke="#0B3A52" stroke-width="10"/><circle cx="-5" cy="-68" r="7" fill="#FFFFFF" opacity="0.55"/></g><g transform="translate(374 238) rotate(72)"><rect x="-22" y="-112" width="44" height="122" rx="22" fill="url(#gill)" stroke="#0B3A52" stroke-width="10"/><circle cx="-5" cy="-88" r="7" fill="#FFFFFF" opacity="0.55"/></g><g transform="translate(374 238) rotate(40)"><rect x="-22" y="-98" width="44" height="108" rx="22" fill="url(#gill)" stroke="#0B3A52" stroke-width="10"/><circle cx="-5" cy="-74" r="7" fill="#FFFFFF" opacity="0.55"/></g><ellipse cx="256" cy="295" rx="168" ry="145" fill="url(#skin)" stroke="#0B3A52" stroke-width="12"/><ellipse cx="256" cy="295" rx="168" ry="145" fill="url(#shine)"/><ellipse cx="160" cy="335" rx="30" ry="18" fill="#FF8FBF" opacity="0.7"/><ellipse cx="352" cy="335" rx="30" ry="18" fill="#FF8FBF" opacity="0.7"/><path transform="translate(180 278) scale(1.25)" d="M0 22 C-34 0 -30 -26 -14 -28 C-6 -29 0 -22 0 -16 C0 -22 6 -29 14 -28 C30 -26 34 0 0 22 Z" fill="#F0457F" stroke="#0B3A52" stroke-width="6"/><path transform="translate(332 278) scale(1.25)" d="M0 22 C-34 0 -30 -26 -14 -28 C-6 -29 0 -22 0 -16 C0 -22 6 -29 14 -28 C30 -26 34 0 0 22 Z" fill="#F0457F" stroke="#0B3A52" stroke-width="6"/><path d="M226 330 Q256 360 286 330" fill="none" stroke="#0B3A52" stroke-width="12" stroke-linecap="round"/></svg>